<svg width="535" height="166" viewBox="0 0 535 166" fill="none" xmlns="http://www.w3.org/2000/svg">
<g clip-path="url(#clip0)">
<path fill-rule="evenodd" clip-rule="evenodd" d="M61.4296 5C95.3562 5 122.859 32.7835 122.859 67.0561V102.944C122.859 137.217 95.3562 165 61.4296 165C27.503 165 0 137.217 0 102.944V67.0561C0 32.7835 27.503 5 61.4296 5ZM61.1391 41.7816C46.9691 41.7816 35.4821 53.3336 35.4821 67.5836L35.4815 71.4534L35.4519 71.4539V128.218L35.9061 128.213C46.3238 127.969 54.6946 119.362 54.6946 108.779L54.6937 107.401C56.7532 107.937 58.913 108.222 61.1391 108.222C75.309 108.222 86.796 96.6699 86.796 82.4198V67.5836C86.796 53.3336 75.309 41.7816 61.1391 41.7816ZM61.1391 61.1331C64.6816 61.1331 67.5533 64.0211 67.5533 67.5836V82.4198C67.5533 85.9823 64.6816 88.8703 61.1391 88.8703C57.5966 88.8703 54.7248 85.9823 54.7248 82.4198V67.5836C54.7248 64.0211 57.5966 61.1331 61.1391 61.1331Z" fill="white"/>
<path d="M194.881 39.034C211.748 39.034 225.421 52.9119 225.421 70.0312V87.8546C225.421 104.974 211.748 118.852 194.881 118.852C192.232 118.852 189.661 118.509 187.21 117.866L187.21 119.97C187.21 132.493 177.16 142.669 164.684 142.872L164.306 142.875V74.6808L164.341 74.68L164.342 70.0312C164.342 52.9119 178.015 39.034 194.881 39.034ZM331.646 39.034C348.522 39.034 362.203 52.9912 362.203 70.2084V88.1336C362.203 105.351 348.522 119.308 331.646 119.308C314.769 119.308 301.088 105.351 301.088 88.1336V70.2084C301.088 52.9912 314.769 39.034 331.646 39.034ZM263.254 37.5611C280.131 37.5611 293.812 51.5183 293.812 68.7354V86.6607C293.812 103.878 280.131 117.835 263.254 117.835C246.378 117.835 232.697 103.878 232.697 86.6607V68.7354C232.697 51.5183 246.378 37.5611 263.254 37.5611ZM392.761 15.4673V94.553C392.761 107.283 382.545 117.626 369.864 117.832L369.479 117.835V38.7494C369.479 25.891 379.903 15.4673 392.761 15.4673ZM331.646 62.4148C327.426 62.4148 324.006 65.9041 324.006 70.2084V88.1336C324.006 92.4379 327.426 95.9272 331.646 95.9272C335.865 95.9272 339.285 92.4379 339.285 88.1336V70.2084C339.285 65.9041 335.865 62.4148 331.646 62.4148ZM194.881 62.2819C190.665 62.2819 187.246 65.7514 187.246 70.0312V87.8546C187.246 92.1344 190.665 95.6039 194.881 95.6039C199.098 95.6039 202.516 92.1344 202.516 87.8546V70.0312C202.516 65.7514 199.098 62.2819 194.881 62.2819ZM263.254 60.9418C259.035 60.9418 255.615 64.4312 255.615 68.7354V86.6607C255.615 90.965 259.035 94.4543 263.254 94.4543C267.474 94.4543 270.894 90.965 270.894 86.6607V68.7354C270.894 64.4312 267.474 60.9418 263.254 60.9418ZM219.215 156.328C214.438 156.328 211.79 153.813 211.79 148.423V136.205H210.596C208.831 136.205 208 135.281 208 133.69V133.074C208 131.585 208.779 130.609 210.544 130.609H211.79V127.427C211.79 125.117 212.932 124.09 214.905 124.09H215.632C217.605 124.09 218.799 124.963 218.799 127.427V130.609H222.538C224.251 130.609 225.134 131.431 225.134 133.022V133.638C225.134 135.332 224.199 136.205 222.538 136.205H218.695V146.934C218.695 149.552 219.474 150.476 221.032 150.476C222.226 150.476 223.264 149.86 223.887 148.987C224.147 148.987 225.393 149.912 225.393 151.862C225.393 152.94 225.03 153.916 224.095 154.737C223.057 155.712 221.447 156.328 219.215 156.328ZM228.556 143.408C228.556 135.585 233.269 130.538 240.49 130.538C247.56 130.538 252.273 135.585 252.273 143.509C252.273 151.281 247.56 156.328 240.389 156.328C233.169 156.328 228.556 151.281 228.556 143.408ZM245.949 142.676C245.949 137.89 243.797 135.373 240.466 135.373C237.084 135.373 234.88 137.841 234.88 142.627C234.88 147.364 237.084 149.881 240.466 149.881C243.745 149.881 245.949 147.364 245.949 142.676ZM265.08 166C257.463 166 253.855 163.559 253.855 159.301C253.855 156.03 256.661 153.641 260.971 152.655C260.269 152.135 259.768 151.305 259.768 150.214C259.768 148.968 260.57 147.825 261.672 147.306C257.563 146.164 255.208 142.996 255.208 138.842C255.208 133.286 259.518 129.339 265.381 129.339C267.035 129.339 268.588 129.703 269.941 130.378L270.994 128.353C271.846 126.379 272.948 125.652 274.251 125.704C276.657 125.756 277.709 128.664 277.559 128.924L273.7 133.078C275.003 134.636 275.754 136.557 275.754 138.79C275.754 143.983 271.996 147.618 266.333 147.773H265.431C265.231 148.033 265.231 148.449 265.531 148.76C265.882 149.799 267.987 150.006 271.044 150.993C274.101 152.032 277.308 153.901 277.308 158.003C277.308 162.729 273.048 166 265.08 166ZM265.739 143.433C268.125 143.433 269.667 141.735 269.667 138.546C269.667 135.408 268.125 133.761 265.689 133.761C263.352 133.761 261.761 135.408 261.761 138.546C261.761 141.735 263.352 143.433 265.739 143.433ZM265.584 162.776C269.169 162.776 271.248 161.685 271.248 159.701C271.248 158.263 269.793 157.469 267.766 156.874C267.091 156.676 266.363 156.477 265.636 156.328C262.518 156.775 260.179 158.064 260.179 159.949C260.179 161.735 262.05 162.776 265.584 162.776ZM279.154 142.814C279.154 134.481 284.035 128.926 291.305 128.926C298.521 128.926 302.872 133.947 302.872 141.799V142.28C302.872 143.615 302.394 144.363 300.962 144.363H285.786C285.839 144.63 285.839 145.004 285.893 145.271C286.37 148.797 288.758 150.72 291.941 150.72C295.019 150.72 296.823 149.224 297.831 147.034C298.415 146.98 301.758 147.354 301.758 150.239C301.758 151.628 301.015 153.07 299.423 154.245C297.778 155.42 295.178 156.328 291.676 156.328C284.142 156.328 279.154 151.254 279.154 142.814ZM294.966 140.209C294.868 136.241 293.344 133.761 290.443 133.761C287.642 133.761 285.774 136.296 285.479 140.209H294.966ZM315.668 156.328C310.891 156.328 308.243 153.813 308.243 148.423V136.205H307.049C305.284 136.205 304.453 135.281 304.453 133.69V133.074C304.453 131.585 305.232 130.609 306.997 130.609H308.243V127.427C308.243 125.117 309.385 124.09 311.358 124.09H312.085C314.058 124.09 315.252 124.963 315.252 127.427V130.609H318.991C320.704 130.609 321.587 131.431 321.587 133.022V133.638C321.587 135.332 320.652 136.205 318.991 136.205H315.148V146.934C315.148 149.552 315.927 150.476 317.485 150.476C318.679 150.476 319.717 149.86 320.34 148.987C320.6 148.987 321.846 149.912 321.846 151.862C321.846 152.94 321.483 153.916 320.548 154.737C319.51 155.712 317.9 156.328 315.668 156.328ZM338.984 129.856C344.85 129.856 347.145 134.276 347.145 139.763V152.16C347.145 154.548 345.972 155.462 344.136 155.462H343.32C341.382 155.462 340.208 154.599 340.208 152.16V140.322C340.208 137.477 338.933 135.648 336.434 135.648C333.935 135.648 332.149 137.274 331.894 140.017V152.16C331.894 154.548 330.772 155.462 328.885 155.462H328.12C326.182 155.462 325.009 154.599 325.009 152.16V120.864C325.009 120.61 326.233 120 327.661 120C329.752 120 331.894 121.169 331.894 125.436V134.327C333.221 131.685 335.516 129.856 338.984 129.856ZM350.308 142.814C350.308 134.481 355.189 128.926 362.458 128.926C369.675 128.926 374.026 133.947 374.026 141.799V142.28C374.026 143.615 373.548 144.363 372.115 144.363H356.94C356.993 144.63 356.993 145.004 357.046 145.271C357.524 148.797 359.912 150.72 363.095 150.72C366.173 150.72 367.977 149.224 368.985 147.034C369.569 146.98 372.911 147.354 372.911 150.239C372.911 151.628 372.169 153.07 370.577 154.245C368.932 155.42 366.332 156.328 362.83 156.328C355.295 156.328 350.308 151.254 350.308 142.814ZM366.12 140.209C366.021 136.241 364.497 133.761 361.597 133.761C358.795 133.761 356.927 136.296 356.632 140.209H366.12ZM388.847 129.92C391.449 129.92 393 131.66 393 134.219C393 137.34 390.848 138.312 390.748 138.261C390.148 137.545 389.247 136.982 387.996 136.982C385.194 136.982 383.943 139.643 383.943 144.709V152.385C383.943 154.79 382.842 155.711 380.941 155.711H380.24C378.339 155.711 377.188 154.841 377.188 152.385V130.995C377.188 130.739 378.289 130.227 379.64 130.227C381.241 130.227 382.492 130.944 383.042 132.888C383.243 133.605 383.393 134.423 383.443 135.293C384.193 131.967 386.095 129.92 388.847 129.92Z" fill="white"/>
<path d="M438.391 67H426.508V29.1719L414.836 32.582V23.582L437.301 15.8125H438.391V67ZM489.367 46.082C489.367 52.9961 487.809 58.3281 484.691 62.0781C481.598 65.8281 477.227 67.7031 471.578 67.7031C465.883 67.7031 461.477 65.8164 458.359 62.043C455.242 58.2695 453.684 52.9492 453.684 46.082V36.7305C453.684 29.8164 455.23 24.4844 458.324 20.7344C461.441 16.9844 465.836 15.1094 471.508 15.1094C477.18 15.1094 481.574 16.9961 484.691 20.7695C487.809 24.543 489.367 29.875 489.367 36.7656V46.082ZM477.52 35.2188C477.52 31.5391 477.039 28.7969 476.078 26.9922C475.117 25.1641 473.594 24.25 471.508 24.25C469.469 24.25 467.98 25.0938 467.043 26.7812C466.129 28.4688 465.637 31.0234 465.566 34.4453V47.5234C465.566 51.3438 466.047 54.1445 467.008 55.9258C467.969 57.6836 469.492 58.5625 471.578 58.5625C473.594 58.5625 475.082 57.707 476.043 55.9961C477.004 54.2617 477.496 51.5547 477.52 47.875V35.2188ZM521.781 67H509.898V29.1719L498.227 32.582V23.582L520.691 15.8125H521.781V67Z" fill="white"/>
</g>
<defs>
<clipPath id="clip0">
<rect width="535" height="166" fill="white"/>
</clipPath>
</defs>
</svg>
