<svg width="125" height="162" viewBox="0 0 125 162" fill="none" xmlns="http://www.w3.org/2000/svg">
<path d="M62.9408 0C97.2151 0 125 27.7849 125 62.0592V99.9408C125 134.215 97.2151 162 62.9408 162H62.0592C27.7849 162 0 134.215 0 99.9408V62.0592C0 27.7849 27.7849 0 62.0592 0H62.9408ZM62.2044 37.2414C47.7875 37.2414 36.1004 48.9377 36.1004 63.3659L36.0997 67.2844L36.0697 67.2846V124.759L36.4104 124.756C47.0659 124.574 55.6477 115.879 55.6477 105.181L55.6483 103.681C57.7432 104.224 59.9401 104.512 62.2044 104.512C76.6213 104.512 88.3085 92.8157 88.3085 78.3875V63.3659C88.3085 48.9377 76.6213 37.2414 62.2044 37.2414ZM62.2044 56.8348C65.8086 56.8348 68.7304 59.7589 68.7304 63.3659V78.3875C68.7304 81.9946 65.8086 84.9187 62.2044 84.9187C58.6002 84.9187 55.6784 81.9946 55.6784 78.3875V63.3659C55.6784 59.7589 58.6002 56.8348 62.2044 56.8348Z" fill="white"/>
</svg>
