<svg width="267" height="162" viewBox="0 0 267 162" fill="none" xmlns="http://www.w3.org/2000/svg">
<path d="M62.9408 0C97.2151 0 125 27.7849 125 62.0592V99.9408C125 134.215 97.2151 162 62.9408 162H62.0592C27.7849 162 0 134.215 0 99.9408V62.0592C0 27.7849 27.7849 0 62.0592 0H62.9408ZM62.2044 37.2414C47.7875 37.2414 36.1004 48.9377 36.1004 63.3659L36.0997 67.2844L36.0697 67.2846V124.759L36.4104 124.756C47.0659 124.574 55.6477 115.879 55.6477 105.181L55.6483 103.681C57.7432 104.224 59.9401 104.512 62.2044 104.512C76.6213 104.512 88.3085 92.8157 88.3085 78.3875V63.3659C88.3085 48.9377 76.6213 37.2414 62.2044 37.2414ZM62.2044 56.8348C65.8086 56.8348 68.7304 59.7589 68.7304 63.3659V78.3875C68.7304 81.9946 65.8086 84.9187 62.2044 84.9187C58.6002 84.9187 55.6784 81.9946 55.6784 78.3875V63.3659C55.6784 59.7589 58.6002 56.8348 62.2044 56.8348Z" fill="white"/>
<path d="M170.391 106H158.508V68.1719L146.836 71.582V62.582L169.301 54.8125H170.391V106ZM221.367 85.082C221.367 91.9961 219.809 97.3281 216.691 101.078C213.598 104.828 209.227 106.703 203.578 106.703C197.883 106.703 193.477 104.816 190.359 101.043C187.242 97.2695 185.684 91.9492 185.684 85.082V75.7305C185.684 68.8164 187.23 63.4844 190.324 59.7344C193.441 55.9844 197.836 54.1094 203.508 54.1094C209.18 54.1094 213.574 55.9961 216.691 59.7695C219.809 63.543 221.367 68.875 221.367 75.7656V85.082ZM209.52 74.2188C209.52 70.5391 209.039 67.7969 208.078 65.9922C207.117 64.1641 205.594 63.25 203.508 63.25C201.469 63.25 199.98 64.0938 199.043 65.7812C198.129 67.4688 197.637 70.0234 197.566 73.4453V86.5234C197.566 90.3438 198.047 93.1445 199.008 94.9258C199.969 96.6836 201.492 97.5625 203.578 97.5625C205.594 97.5625 207.082 96.707 208.043 94.9961C209.004 93.2617 209.496 90.5547 209.52 86.875V74.2188ZM253.781 106H241.898V68.1719L230.227 71.582V62.582L252.691 54.8125H253.781V106Z" fill="white"/>
</svg>
